<svg width="154" height="41" viewBox="0 0 154 41" fill="none" xmlns="http://www.w3.org/2000/svg">
<g clip-path="url(#clip0_1_3)">
<path d="M118.312 6.15483V4.72727H124.46V6.15483H122.254V12H120.521V6.15483H118.312ZM126.118 12V4.72727H131.189V6.15483H127.876V7.64631H130.93V9.07741H127.876V10.5724H131.189V12H126.118ZM139.691 7.36222H137.916C137.892 7.17992 137.844 7.01539 137.77 6.86861C137.697 6.72183 137.6 6.59635 137.479 6.49219C137.358 6.38802 137.215 6.30871 137.049 6.25426C136.886 6.19744 136.705 6.16903 136.506 6.16903C136.153 6.16903 135.849 6.25544 135.593 6.42827C135.34 6.60109 135.145 6.85085 135.007 7.17756C134.873 7.50426 134.805 7.89962 134.805 8.36364C134.805 8.84659 134.874 9.25142 135.011 9.57812C135.151 9.90246 135.346 10.1475 135.597 10.3132C135.85 10.4766 136.15 10.5582 136.495 10.5582C136.69 10.5582 136.866 10.5334 137.025 10.4837C137.186 10.4339 137.326 10.3617 137.447 10.267C137.57 10.17 137.671 10.0528 137.749 9.91548C137.829 9.7758 137.885 9.61837 137.916 9.44318L139.691 9.45384C139.661 9.7758 139.567 10.093 139.411 10.4055C139.257 10.718 139.045 11.0033 138.775 11.2614C138.505 11.517 138.176 11.7206 137.788 11.8722C137.402 12.0237 136.959 12.0994 136.46 12.0994C135.802 12.0994 135.212 11.955 134.691 11.6662C134.173 11.375 133.763 10.9512 133.463 10.3949C133.162 9.83854 133.012 9.16146 133.012 8.36364C133.012 7.56345 133.164 6.88518 133.47 6.32884C133.775 5.77249 134.188 5.34991 134.709 5.06108C135.23 4.77225 135.814 4.62784 136.46 4.62784C136.9 4.62784 137.307 4.68939 137.681 4.8125C138.056 4.93324 138.385 5.1108 138.669 5.34517C138.953 5.57718 139.184 5.86245 139.361 6.20099C139.539 6.53954 139.649 6.92661 139.691 7.36222ZM141.497 12V4.72727H143.255V7.64631H146.121V4.72727H147.875V12H146.121V9.07741H143.255V12H141.497Z" fill="#0E2497"/>
<path d="M124.74 16.7273V24H123.249L120.354 19.8026H120.308V24H118.55V16.7273H120.063L122.925 20.9176H122.986V16.7273H124.74ZM126.645 24V16.7273H131.716V18.1548H128.403V19.6463H131.457V21.0774H128.403V22.5724H131.716V24H126.645ZM135.361 24L133.244 16.7273H135.187L136.284 21.4929H136.344L137.598 16.7273H139.182L140.435 21.5036H140.496L141.597 16.7273H143.536L141.423 24H139.729L138.418 19.5895H138.362L137.051 24H135.361ZM148.905 18.9077C148.881 18.6473 148.776 18.4448 148.589 18.3004C148.404 18.1536 148.14 18.0803 147.797 18.0803C147.57 18.0803 147.38 18.1098 147.229 18.169C147.077 18.2282 146.964 18.3099 146.888 18.4141C146.812 18.5159 146.773 18.633 146.771 18.7656C146.766 18.8745 146.787 18.9704 146.835 19.0533C146.884 19.1361 146.955 19.2095 147.048 19.2734C147.142 19.335 147.256 19.3894 147.389 19.4368C147.521 19.4841 147.67 19.5256 147.836 19.5611L148.461 19.7031C148.821 19.7812 149.138 19.8854 149.413 20.0156C149.69 20.1458 149.922 20.3009 150.109 20.4808C150.298 20.6607 150.441 20.8679 150.538 21.1023C150.636 21.3366 150.685 21.5994 150.688 21.8906C150.685 22.3499 150.569 22.7441 150.34 23.0732C150.11 23.4022 149.78 23.6544 149.349 23.8295C148.92 24.0047 148.403 24.0923 147.797 24.0923C147.189 24.0923 146.658 24.0012 146.206 23.8189C145.754 23.6366 145.402 23.3596 145.151 22.9879C144.9 22.6162 144.771 22.1463 144.764 21.5781H146.448C146.462 21.8125 146.525 22.0078 146.636 22.1641C146.747 22.3203 146.9 22.4387 147.094 22.5192C147.29 22.5997 147.518 22.6399 147.776 22.6399C148.012 22.6399 148.214 22.608 148.379 22.544C148.547 22.4801 148.677 22.3913 148.766 22.2777C148.856 22.1641 148.903 22.0339 148.905 21.8871C148.903 21.7498 148.86 21.6326 148.777 21.5355C148.694 21.4361 148.566 21.3509 148.394 21.2798C148.223 21.2064 148.005 21.139 147.74 21.0774L146.98 20.8999C146.351 20.7554 145.855 20.5223 145.492 20.2003C145.13 19.8759 144.95 19.438 144.953 18.8864C144.95 18.4366 145.071 18.0424 145.315 17.7038C145.559 17.3653 145.896 17.1013 146.327 16.9119C146.758 16.7225 147.249 16.6278 147.801 16.6278C148.364 16.6278 148.853 16.7237 149.267 16.9155C149.684 17.1049 150.007 17.3712 150.237 17.7145C150.466 18.0578 150.583 18.4555 150.588 18.9077H148.905Z" fill="#5F6AA5"/>
<path d="M124.74 28.7273V36H123.249L120.354 31.8026H120.308V36H118.55V28.7273H120.063L122.925 32.9176H122.986V28.7273H124.74ZM126.645 36V28.7273H131.716V30.1548H128.403V31.6463H131.457V33.0774H128.403V34.5724H131.716V36H126.645ZM137.548 30.9077C137.525 30.6473 137.419 30.4448 137.232 30.3004C137.048 30.1536 136.784 30.0803 136.44 30.0803C136.213 30.0803 136.024 30.1098 135.872 30.169C135.721 30.2282 135.607 30.3099 135.531 30.4141C135.456 30.5159 135.416 30.633 135.414 30.7656C135.409 30.8745 135.431 30.9704 135.478 31.0533C135.528 31.1361 135.599 31.2095 135.691 31.2734C135.786 31.335 135.899 31.3894 136.032 31.4368C136.165 31.4841 136.314 31.5256 136.479 31.5611L137.104 31.7031C137.464 31.7812 137.782 31.8854 138.056 32.0156C138.333 32.1458 138.565 32.3009 138.752 32.4808C138.942 32.6607 139.085 32.8679 139.182 33.1023C139.279 33.3366 139.329 33.5994 139.331 33.8906C139.329 34.3499 139.213 34.7441 138.983 35.0732C138.753 35.4022 138.423 35.6544 137.992 35.8295C137.564 36.0047 137.046 36.0923 136.44 36.0923C135.832 36.0923 135.302 36.0012 134.849 35.8189C134.397 35.6366 134.046 35.3596 133.795 34.9879C133.544 34.6162 133.415 34.1463 133.408 33.5781H135.091C135.105 33.8125 135.168 34.0078 135.279 34.1641C135.39 34.3203 135.543 34.4387 135.737 34.5192C135.934 34.5997 136.161 34.6399 136.419 34.6399C136.656 34.6399 136.857 34.608 137.023 34.544C137.191 34.4801 137.32 34.3913 137.41 34.2777C137.5 34.1641 137.546 34.0339 137.548 33.8871C137.546 33.7498 137.503 33.6326 137.42 33.5355C137.338 33.4361 137.21 33.3509 137.037 33.2798C136.867 33.2064 136.649 33.139 136.384 33.0774L135.624 32.8999C134.994 32.7554 134.498 32.5223 134.136 32.2003C133.773 31.8759 133.594 31.438 133.596 30.8864C133.594 30.4366 133.714 30.0424 133.958 29.7038C134.202 29.3653 134.539 29.1013 134.97 28.9119C135.401 28.7225 135.892 28.6278 136.444 28.6278C137.007 28.6278 137.496 28.7237 137.911 28.9155C138.327 29.1049 138.65 29.3712 138.88 29.7145C139.11 30.0578 139.227 30.4555 139.232 30.9077H137.548ZM140.781 30.1548V28.7273H146.928V30.1548H144.723V36H142.99V30.1548H140.781Z" fill="#9FA2B0"/>
<path d="M3.29545 10.7273V3.09091H33.6364V10.7273H23.1364V38H13.7955V10.7273H3.29545Z" fill="#0E2497"/>
<path d="M70.7677 3.09091V38H62.8586L50.2449 19.6591H50.0404V38H40.5631V3.09091H48.6086L61.0177 21.3636H61.2904V3.09091H70.7677Z" fill="#5F6AA5"/>
<path d="M108.815 3.09091V38H100.906L88.2924 19.6591H88.0879V38H78.6106V3.09091H86.6561L99.0652 21.3636H99.3379V3.09091H108.815Z" fill="#9FA2B0"/>
</g>
<defs>
<clipPath id="clip0_1_3">
<rect width="154" height="41" fill="white"/>
</clipPath>
</defs>
</svg>
